<svg xmlns="http://www.w3.org/2000/svg" viewBox="0 0 1584 396" width="1584" height="396" role="img" aria-label="txtradar — scan anything, miss nothing">
  <defs>
    <radialGradient id="rmkB" cx="50%" cy="45%" r="72%">
      <stop offset="0%" stop-color="#16241d"/><stop offset="72%" stop-color="#0a0d12"/>
    </radialGradient>
  </defs>
  <rect width="1584" height="396" fill="#0f1012"/>

  <g fill="none" stroke="#0ea968" stroke-opacity="0.14" stroke-width="2">
    <circle cx="90" cy="198" r="150"/><circle cx="90" cy="198" r="250"/>
    <circle cx="1494" cy="198" r="150"/><circle cx="1494" cy="198" r="250"/><circle cx="1494" cy="198" r="350"/>
  </g>

  <g transform="translate(766,60)">
    <circle cx="26" cy="26" r="26" fill="url(#rmkB)"/>
    <g fill="none" stroke="#69dc96" stroke-opacity="0.42" stroke-width="1">
      <circle cx="26" cy="26" r="21.5"/><circle cx="26" cy="26" r="15.5"/><circle cx="26" cy="26" r="9.5"/>
      <line x1="4.5" y1="26" x2="47.5" y2="26"/><line x1="26" y1="4.5" x2="26" y2="47.5"/>
    </g>
    <path d="M26 26 L26 4.5 A21.5 21.5 0 0 1 45 15.5 Z" fill="#6ef096" fill-opacity="0.3"/>
    <circle cx="26" cy="26" r="3.8" fill="#7dffb0"/>
  </g>

  <text x="792" y="158" text-anchor="middle" font-family="Inter, system-ui, sans-serif" font-size="34" font-weight="600" letter-spacing="-1" fill="#ffffff">txtradar</text>
  <text x="792" y="240" text-anchor="middle" font-family="Inter, system-ui, sans-serif" font-size="62" font-weight="600" letter-spacing="-1.5" fill="#ffffff">Scan anything. Miss nothing.</text>
  <text x="792" y="288" text-anchor="middle" font-family="Inter, system-ui, sans-serif" font-size="26" font-weight="400" fill="#9aa0ab">The watch-list scanner for everything you review — PDFs, sites, files, images.</text>
  <text x="792" y="332" text-anchor="middle" font-family="Inter, system-ui, sans-serif" font-size="22" font-weight="500" fill="#28c987">Free Chrome extension — coming soon  ·  txtradar.com</text>
</svg>
