<svg xmlns="http://www.w3.org/2000/svg" viewBox="0 0 512 512" width="512" height="512" role="img" aria-label="txtradar radar">
  <defs>
    <radialGradient id="disc" cx="50%" cy="45%" r="72%">
      <stop offset="0%" stop-color="#16241d"/>
      <stop offset="72%" stop-color="#0a0d12"/>
    </radialGradient>
  </defs>
  <circle cx="256" cy="256" r="256" fill="url(#disc)"/>
  <circle cx="256" cy="256" r="254" fill="none" stroke="#6ef096" stroke-opacity="0.20" stroke-width="2"/>
  <g fill="none" stroke="#69dc96" stroke-opacity="0.30" stroke-width="2.4">
    <circle cx="256" cy="256" r="215"/><circle cx="256" cy="256" r="154"/>
    <circle cx="256" cy="256" r="95"/><circle cx="256" cy="256" r="36"/>
    <line x1="36" y1="256" x2="476" y2="256"/><line x1="256" y1="36" x2="256" y2="476"/>
    <line x1="100" y1="100" x2="412" y2="412"/><line x1="412" y1="100" x2="100" y2="412"/>
  </g>
  <path d="M256 256 L256 41 A215 215 0 0 1 446 154 Z" fill="#6ef096" fill-opacity="0.26"/>
  <circle cx="365" cy="365" r="16" fill="#ef9f27" fill-opacity="0.28"/><circle cx="365" cy="365" r="9" fill="#ef9f27"/>
  <circle cx="104" cy="408" r="15" fill="#5aa6ff" fill-opacity="0.28"/><circle cx="104" cy="408" r="8.5" fill="#5aa6ff"/>
  <circle cx="323" cy="189" r="14" fill="#4cd07d" fill-opacity="0.3"/><circle cx="323" cy="189" r="8" fill="#4cd07d"/>
  <circle cx="256" cy="256" r="30" fill="#7dffb0" fill-opacity="0.35"/>
  <circle cx="256" cy="256" r="15" fill="#7dffb0"/>
</svg>
